<?xml version="1.0" encoding="iso-8859-1"?>
<!-- Generator: Adobe Illustrator 19.0.0, SVG Export Plug-In . SVG Version: 6.00 Build 0)  -->
<svg version="1.1" id="Layer_1" xmlns="http://www.w3.org/2000/svg" xmlns:xlink="http://www.w3.org/1999/xlink" x="0px" y="0px"
	 viewBox="0 0 512 512" style="enable-background:new 0 0 512 512;" xml:space="preserve">
<g>
	<g>
		<path d="M501.801,0H10.199C4.567,0,0,4.566,0,10.199v491.602C0,507.434,4.567,512,10.199,512h491.602
			c5.632,0,10.199-4.566,10.199-10.199V10.199C512,4.566,507.433,0,501.801,0z M20.398,20.398H246.14V124.43H20.398V20.398z
			 M367.511,144.829v100.972H144.489V144.829H367.511z M20.398,144.829h103.692v100.972H20.398V144.829z M20.398,266.199H246.14
			v101.652H20.398V266.199z M124.091,491.602H20.398V388.25h103.692V491.602z M367.511,491.602H144.489V388.25h223.022V491.602z
			 M491.602,491.602H387.909V388.25h33.318c5.632,0,10.199-4.566,10.199-10.199c0-5.633-4.567-10.199-10.199-10.199H266.539V266.199
			h225.063V491.602z M491.602,245.801H387.909V144.829h103.692V245.801z M491.602,124.43H266.539V20.398h225.063V124.43z"/>
	</g>
</g>
<g>
	<g>
		<path d="M464.064,367.852h-6.12c-5.632,0-10.199,4.566-10.199,10.199c0,5.633,4.567,10.199,10.199,10.199h6.12
			c5.632,0,10.199-4.566,10.199-10.199C474.263,372.418,469.696,367.852,464.064,367.852z"/>
	</g>
</g>
<g>
</g>
<g>
</g>
<g>
</g>
<g>
</g>
<g>
</g>
<g>
</g>
<g>
</g>
<g>
</g>
<g>
</g>
<g>
</g>
<g>
</g>
<g>
</g>
<g>
</g>
<g>
</g>
<g>
</g>
</svg>
