<svg height="512pt" viewBox="0 -32 512 511" width="512pt" xmlns="http://www.w3.org/2000/svg"><path d="m496.246094 246.332031c10.160156-10.15625 15.753906-23.664062 15.753906-38.03125 0-14.367187-5.59375-27.875-15.753906-38.03125l-154.015625-154.015625c-10.15625-10.160156-23.664063-15.753906-38.03125-15.753906-14.367188 0-27.875 5.59375-38.03125 15.753906l-250.414063 250.414063c-10.160156 10.15625-15.753906 23.664062-15.753906 38.03125 0 14.367187 5.59375 27.875 15.753906 38.035156l75.5 75.5h-28.054687c-8.285157 0-15 6.714844-15 15 0 8.28125 6.714843 15 15 15h385.601562c8.285157 0 15-6.71875 15-15 0-8.285156-6.714843-15-15-15h-124.453125zm-208.863282-208.867187c9.289063-9.289063 24.335938-9.300782 33.636719 0l154.015625 154.015625c9.289063 9.289062 9.300782 24.339843 0 33.640625l-114.601562 114.601562-187.652344-187.65625zm-153.703124 380.769531-96.714844-96.714844c-9.289063-9.289062-9.300782-24.335937 0-33.636719l114.601562-114.601562 187.65625 187.652344-57.300781 57.300781zm0 0"/></svg>