<?xml version="1.0" encoding="iso-8859-1"?>
<!-- Generator: Adobe Illustrator 19.0.0, SVG Export Plug-In . SVG Version: 6.00 Build 0)  -->
<svg version="1.1" id="Capa_1" xmlns="http://www.w3.org/2000/svg" xmlns:xlink="http://www.w3.org/1999/xlink" x="0px" y="0px"
	 viewBox="0 0 512 512" style="enable-background:new 0 0 512 512;" xml:space="preserve">
<g>
	<g>
		<path d="M508.175,150.099c-2.846-3.178-6.909-4.994-11.175-4.994h-58.523v-52.23c0-8.284-6.716-15-15-15H166.039v-17.9
			c0-8.284-6.716-15-15-15H15c-8.284,0-15,6.716-15,15l0.018,391.953c-0.027,3.458,1.134,6.851,3.357,9.576
			c2.849,3.494,7.117,5.521,11.625,5.521h449.704c7.646,0,14.068-5.751,14.909-13.351l32.296-291.921
			C512.378,157.515,511.02,153.277,508.175,150.099z M30,74.975h106.039v17.9c0,8.284,6.716,15,15,15h257.438v37.23H75.004
			c-7.12,0-13.259,5.005-14.692,11.98L30,304.552V74.975z M451.272,437.027H33.396l53.838-261.921h393.015L451.272,437.027z"/>
	</g>
</g>
<g>
</g>
<g>
</g>
<g>
</g>
<g>
</g>
<g>
</g>
<g>
</g>
<g>
</g>
<g>
</g>
<g>
</g>
<g>
</g>
<g>
</g>
<g>
</g>
<g>
</g>
<g>
</g>
<g>
</g>
</svg>
