<svg height="511pt" viewBox="1 -104 511.9996 511" width="511pt" xmlns="http://www.w3.org/2000/svg"><path d="m191.734375 96.898438h-17.132813v-17.132813c0-8.285156-6.71875-15-15-15-8.285156 0-15 6.714844-15 15v17.132813h-17.132812c-8.285156 0-15 6.714843-15 15 0 8.285156 6.714844 15 15 15h17.132812v17.132812c0 8.285156 6.714844 15 15 15 8.28125 0 15-6.714844 15-15v-17.132812h17.132813c8.285156 0 15-6.714844 15-15 0-8.285157-6.714844-15-15-15zm0 0"/><path d="m367.402344 79.765625c0 8.285156-6.71875 15-15 15-8.285156 0-15-6.714844-15-15s6.714844-15 15-15c8.28125 0 15 6.714844 15 15zm0 0"/><path d="m335.269531 111.898438c0 8.285156-6.71875 15-15 15-8.285156 0-15-6.714844-15-15 0-8.285157 6.714844-15 15-15 8.28125 0 15 6.714843 15 15zm0 0"/><path d="m367.402344 144.03125c0 8.285156-6.71875 15-15 15-8.285156 0-15-6.714844-15-15 0-8.28125 6.714844-15 15-15 8.28125 0 15 6.71875 15 15zm0 0"/><path d="m399.535156 111.898438c0 8.285156-6.71875 15-15 15-8.285156 0-15-6.714844-15-15 0-8.285157 6.714844-15 15-15 8.28125 0 15 6.714843 15 15zm0 0"/><path d="m510.296875 226.054688-34.320313-145.859376c-9.9375-42.242187-48.308593-79.695312-100.605468-79.695312h-238.738282c-55.152343 0-91.367187 40.402344-100.609374 79.695312l-34.316407 145.859376c-9.328125 39.644531 20.78125 77.578124 61.453125 77.578124 17.304688 0 33.582032-9.21875 42.476563-24.054687l26.4375-44.058594c4.519531-7.539062 12.789062-12.21875 21.578125-12.21875h204.699218c8.789063 0 17.054688 4.679688 21.578126 12.222657l26.429687 44.050781c8.898437 14.839843 25.175781 24.058593 42.5 24.058593 40.71875 0 70.75-38.003906 61.4375-77.578124zm-61.457031 47.578124c-6.824219 0-13.246094-3.636718-16.757813-9.492187l-26.429687-44.050781c-9.90625-16.523438-28.03125-26.789063-47.300782-26.789063h-204.699218c-19.269532 0-37.394532 10.265625-47.300782 26.785157l-26.4375 44.058593c-3.507812 5.851563-9.929687 9.488281-16.773437 9.488281-21.324219 0-37.125-19.925781-32.234375-40.707031l34.316406-145.859375c7.835938-33.304687 37.199219-56.566406 71.410156-56.566406h238.738282c34.207031 0 63.574218 23.261719 71.40625 56.566406l34.320312 145.859375c4.882813 20.769531-10.886718 40.707031-32.257812 40.707031zm0 0"/></svg>