<svg id="Capa_1" enable-background="new 0 0 509.833 509.833" height="512" viewBox="0 0 509.833 509.833" width="512" xmlns="http://www.w3.org/2000/svg"><g><g><circle cx="306.043" cy="423.967" r="3.122"/><path d="m285.916 420.845c-1.724 0-3.122 1.398-3.122 3.122 0 1.725 1.398 3.122 3.122 3.122s3.122-1.397 3.122-3.122c0-1.724-1.398-3.122-3.122-3.122z"/><path d="m296.358 430.529c-1.724 0-3.122 1.398-3.122 3.122 0 1.725 1.398 3.122 3.122 3.122s3.122-1.397 3.122-3.122c0-1.723-1.397-3.122-3.122-3.122z"/><path d="m265.788 420.845c-1.724 0-3.122 1.398-3.122 3.122 0 1.725 1.398 3.122 3.122 3.122s3.122-1.397 3.122-3.122c0-1.724-1.398-3.122-3.122-3.122z"/><path d="m276.231 430.529c-1.724 0-3.122 1.398-3.122 3.122 0 1.725 1.398 3.122 3.122 3.122s3.122-1.397 3.122-3.122c0-1.723-1.398-3.122-3.122-3.122z"/><path d="m245.66 420.845c-1.725 0-3.122 1.398-3.122 3.122 0 1.725 1.398 3.122 3.122 3.122s3.122-1.397 3.122-3.122c0-1.724-1.397-3.122-3.122-3.122z"/><path d="m256.103 430.529c-1.724 0-3.122 1.398-3.122 3.122 0 1.725 1.398 3.122 3.122 3.122s3.122-1.397 3.122-3.122c0-1.723-1.398-3.122-3.122-3.122z"/><path d="m225.533 420.845c-1.724 0-3.122 1.398-3.122 3.122 0 1.725 1.398 3.122 3.122 3.122s3.122-1.397 3.122-3.122c0-1.724-1.398-3.122-3.122-3.122z"/><path d="m235.975 430.529c-1.724 0-3.122 1.398-3.122 3.122 0 1.725 1.398 3.122 3.122 3.122s3.122-1.397 3.122-3.122c0-1.723-1.397-3.122-3.122-3.122z"/><circle cx="205.405" cy="423.967" r="3.122"/><path d="m215.848 430.529c-1.724 0-3.122 1.398-3.122 3.122 0 1.725 1.398 3.122 3.122 3.122s3.122-1.397 3.122-3.122c0-1.723-1.398-3.122-3.122-3.122z"/><path d="m294.636 258.026h-79.439c-22.33 0-40.497 18.167-40.497 40.496v109.408c0 22.33 18.167 40.496 40.497 40.496h79.439c22.33 0 40.496-18.167 40.496-40.496v-109.408c0-22.329-18.166-40.496-40.496-40.496zm23.026 172.737c-.363-.148-.759-.233-1.175-.233-1.724 0-3.122 1.398-3.122 3.122 0 .238.032.467.082.69-5.31 3.793-11.802 6.034-18.81 6.034h-79.439c-6.234 0-12.06-1.771-17.01-4.831.404-.526.654-1.177.654-1.893 0-1.724-1.398-3.122-3.122-3.122-1.02 0-1.918.497-2.488 1.254-2.008-1.85-3.777-3.951-5.269-6.25.27-.462.436-.993.436-1.566 0-1.666-1.309-3.015-2.952-3.105-1.73-3.965-2.696-8.337-2.696-12.932v-2.27c.567.785 1.484 1.3 2.526 1.3.494 0 .955-.125 1.37-.329 1.961 1.953 4.114 3.71 6.438 5.232-.304.481-.487 1.048-.487 1.661 0 1.724 1.398 3.122 3.122 3.122 1.245 0 2.311-.734 2.812-1.788 5.086 2.307 10.726 3.6 16.665 3.6h79.439c6.767 0 13.147-1.676 18.759-4.624.158 1.576 1.473 2.811 3.091 2.811 1.724 0 3.122-1.397 3.122-3.122 0-1.11-.583-2.078-1.455-2.632 2.058-1.474 3.976-3.129 5.722-4.952.571.623 1.384 1.021 2.296 1.021.319 0 .62-.062.91-.15v1.12c0 8.895-3.601 16.965-9.419 22.832zm9.419-52.801c0 17.89-14.555 32.445-32.445 32.445h-79.439c-17.891 0-32.446-14.555-32.446-32.445v-79.439c0-17.89 14.555-32.445 32.446-32.445h79.439c17.89 0 32.445 14.555 32.445 32.445z"/><path d="m296.358 228.245c-1.724 0-3.122 1.398-3.122 3.122s1.398 3.122 3.122 3.122 3.122-1.397 3.122-3.122c0-1.723-1.397-3.122-3.122-3.122z"/><path d="m276.231 228.245c-1.724 0-3.122 1.398-3.122 3.122s1.398 3.122 3.122 3.122 3.122-1.397 3.122-3.122c0-1.723-1.398-3.122-3.122-3.122z"/><path d="m256.103 228.245c-1.724 0-3.122 1.398-3.122 3.122s1.398 3.122 3.122 3.122 3.122-1.397 3.122-3.122c0-1.723-1.398-3.122-3.122-3.122z"/><path d="m235.975 228.245c-1.724 0-3.122 1.398-3.122 3.122s1.398 3.122 3.122 3.122 3.122-1.397 3.122-3.122c0-1.723-1.397-3.122-3.122-3.122z"/><path d="m215.848 228.245c-1.724 0-3.122 1.398-3.122 3.122s1.398 3.122 3.122 3.122 3.122-1.397 3.122-3.122c0-1.723-1.398-3.122-3.122-3.122z"/><path d="m195.72 228.245c-1.724 0-3.122 1.398-3.122 3.122s1.398 3.122 3.122 3.122 3.122-1.397 3.122-3.122c0-1.723-1.398-3.122-3.122-3.122z"/><path d="m294.636 61.408h-79.439c-22.33 0-40.497 18.167-40.497 40.496v109.407c0 22.33 18.167 40.497 40.497 40.497h79.439c22.33 0 40.496-18.166 40.496-40.497v-109.407c0-22.329-18.166-40.496-40.496-40.496zm24.872 170.709c.059-.241.1-.489.1-.748 0-1.725-1.398-3.122-3.122-3.122s-3.122 1.398-3.122 3.122 1.398 3.122 3.122 3.122c.357 0 .694-.072 1.013-.183-2.513 2.499-5.432 4.588-8.648 6.162-.503-1.05-1.566-1.781-2.808-1.781-1.724 0-3.122 1.398-3.122 3.122 0 .291.053.567.127.834-2.685.722-5.503 1.113-8.412 1.113h-6.296c.43-.535.699-1.206.699-1.946 0-1.724-1.398-3.122-3.122-3.122s-3.122 1.398-3.122 3.122c0 .74.268 1.411.698 1.946h-15.281c.43-.535.698-1.206.698-1.946 0-1.724-1.398-3.122-3.122-3.122s-3.122 1.398-3.122 3.122c0 .74.268 1.411.699 1.946h-15.281c.43-.535.699-1.206.699-1.946 0-1.724-1.398-3.122-3.122-3.122-1.725 0-3.122 1.398-3.122 3.122 0 .74.268 1.411.699 1.946h-15.281c.43-.535.699-1.206.699-1.946 0-1.724-1.398-3.122-3.122-3.122s-3.122 1.398-3.122 3.122c0 .74.268 1.411.699 1.946h-7.912c-2.372 0-4.682-.263-6.91-.748.154-.369.24-.773.24-1.198 0-1.724-1.398-3.122-3.122-3.122-1.482 0-2.716 1.035-3.036 2.419-7.381-3.189-13.345-9.044-16.686-16.343 1.53-.201 2.716-1.496 2.716-3.081 0-1.724-1.398-3.123-3.122-3.123-.585 0-1.126.171-1.595.452-.604-2.47-.931-5.047-.931-7.701v-5.761c4.991 6.672 11.993 11.751 20.094 14.352-.352.505-.562 1.118-.562 1.781 0 1.724 1.398 3.122 3.122 3.122s3.122-1.398 3.122-3.122c0-.142-.023-.277-.042-.414 2.185.366 4.425.569 6.712.569h7.229c.083 1.65 1.436 2.966 3.107 2.966s3.023-1.316 3.106-2.966h13.915c.083 1.65 1.435 2.966 3.107 2.966 1.671 0 3.023-1.316 3.106-2.966h13.915c.083 1.65 1.435 2.966 3.106 2.966s3.023-1.316 3.106-2.966h13.915c.083 1.65 1.436 2.966 3.106 2.966s3.023-1.316 3.106-2.966h5.614c2.875 0 5.675-.318 8.382-.89-.057.237-.096.48-.096.734 0 1.724 1.398 3.122 3.122 3.122 1.725 0 3.122-1.398 3.122-3.122 0-.864-.351-1.645-.918-2.211 7.566-2.709 14.103-7.598 18.833-13.921v5.76c0 2.496-.293 4.923-.829 7.258-.028 0-.053-.008-.081-.008-1.724 0-3.122 1.399-3.122 3.123 0 1.06.53 1.992 1.337 2.556-1.25 2.862-2.899 5.512-4.879 7.876zm7.573-50.775c0 17.89-14.555 32.445-32.445 32.445h-79.439c-17.891 0-32.446-14.555-32.446-32.445v-79.439c0-17.891 14.555-32.445 32.446-32.445h79.439c17.89 0 32.445 14.555 32.445 32.445z"/><path d="m124.894 420.845c-1.724 0-3.122 1.398-3.122 3.122 0 1.725 1.398 3.122 3.122 3.122s3.122-1.397 3.122-3.122c0-1.724-1.398-3.122-3.122-3.122z"/><path d="m104.766 420.845c-1.724 0-3.122 1.398-3.122 3.122 0 1.725 1.398 3.122 3.122 3.122s3.122-1.397 3.122-3.122c0-1.724-1.397-3.122-3.122-3.122z"/><path d="m115.209 430.529c-1.724 0-3.122 1.398-3.122 3.122 0 1.725 1.398 3.122 3.122 3.122s3.122-1.397 3.122-3.122c0-1.723-1.397-3.122-3.122-3.122z"/><path d="m84.639 420.845c-1.724 0-3.122 1.398-3.122 3.122 0 1.725 1.398 3.122 3.122 3.122s3.122-1.397 3.122-3.122c0-1.724-1.398-3.122-3.122-3.122z"/><path d="m95.081 430.529c-1.724 0-3.122 1.398-3.122 3.122 0 1.725 1.398 3.122 3.122 3.122 1.725 0 3.122-1.397 3.122-3.122.001-1.723-1.397-3.122-3.122-3.122z"/><path d="m64.511 420.845c-1.724 0-3.122 1.398-3.122 3.122 0 1.725 1.398 3.122 3.122 3.122s3.122-1.397 3.122-3.122c0-1.724-1.398-3.122-3.122-3.122z"/><path d="m74.954 430.529c-1.724 0-3.122 1.398-3.122 3.122 0 1.725 1.398 3.122 3.122 3.122s3.122-1.397 3.122-3.122c0-1.723-1.398-3.122-3.122-3.122z"/><path d="m44.383 420.845c-1.724 0-3.122 1.398-3.122 3.122 0 1.725 1.398 3.122 3.122 3.122s3.122-1.397 3.122-3.122c0-1.724-1.397-3.122-3.122-3.122z"/><path d="m54.826 430.529c-1.724 0-3.122 1.398-3.122 3.122 0 1.725 1.398 3.122 3.122 3.122s3.122-1.397 3.122-3.122c0-1.723-1.398-3.122-3.122-3.122z"/><circle cx="24.256" cy="423.967" r="3.122"/><path d="m34.699 430.529c-1.724 0-3.122 1.398-3.122 3.122 0 1.725 1.398 3.122 3.122 3.122s3.122-1.397 3.122-3.122c-.001-1.723-1.398-3.122-3.122-3.122z"/><path d="m14.571 410.402c-1.724 0-3.122 1.398-3.122 3.123 0 1.724 1.398 3.122 3.122 3.122s3.122-1.397 3.122-3.122-1.398-3.123-3.122-3.123z"/><path d="m119.935 258.026h-79.439c-22.33 0-40.496 18.167-40.496 40.496v109.408c0 22.33 18.166 40.496 40.496 40.496h79.439c22.33 0 40.497-18.167 40.497-40.496v-109.408c0-22.329-18.167-40.496-40.497-40.496zm32.446 149.904c0 5.818-1.547 11.278-4.24 16.005-.017-1.709-1.405-3.091-3.119-3.091-1.724 0-3.122 1.398-3.122 3.122 0 1.725 1.398 3.122 3.122 3.122.455 0 .884-.102 1.274-.277-2.2 3.062-4.915 5.728-8.023 7.866.113-.323.187-.665.187-1.026 0-1.724-1.398-3.122-3.122-3.122s-3.122 1.398-3.122 3.122c0 1.561 1.148 2.842 2.643 3.074-4.471 2.327-9.544 3.65-14.923 3.65h-79.44c-17.89 0-32.445-14.555-32.445-32.445v-5.761c7.391 9.882 19.184 16.289 32.445 16.289h79.439c13.261 0 25.054-6.408 32.446-16.289zm0-29.968c0 17.89-14.555 32.445-32.446 32.445h-79.439c-17.89 0-32.445-14.555-32.445-32.445v-79.439c0-17.89 14.555-32.445 32.445-32.445h79.439c17.891 0 32.446 14.555 32.446 32.445z"/><path d="m494.513 414.531c0 1.724 1.398 3.122 3.122 3.122s3.122-1.397 3.122-3.122-1.398-3.122-3.122-3.122c-1.724-.001-3.122 1.397-3.122 3.122z"/><path d="m487.193 421.851c-1.724 0-3.122 1.398-3.122 3.122 0 1.725 1.398 3.122 3.122 3.122s3.122-1.397 3.122-3.122c0-1.724-1.398-3.122-3.122-3.122z"/><path d="m467.065 421.851c-1.724 0-3.122 1.398-3.122 3.122 0 1.725 1.398 3.122 3.122 3.122s3.122-1.397 3.122-3.122c0-1.724-1.398-3.122-3.122-3.122z"/><path d="m477.508 431.536c-1.724 0-3.122 1.398-3.122 3.123s1.398 3.122 3.122 3.122 3.122-1.398 3.122-3.122c0-1.725-1.398-3.123-3.122-3.123z"/><path d="m446.937 421.851c-1.724 0-3.122 1.398-3.122 3.122 0 1.725 1.398 3.122 3.122 3.122s3.122-1.397 3.122-3.122c0-1.724-1.397-3.122-3.122-3.122z"/><path d="m457.38 431.536c-1.724 0-3.122 1.398-3.122 3.123s1.398 3.122 3.122 3.122 3.122-1.398 3.122-3.122c0-1.725-1.398-3.123-3.122-3.123z"/><path d="m426.81 421.851c-1.724 0-3.122 1.398-3.122 3.122 0 1.725 1.398 3.122 3.122 3.122s3.122-1.397 3.122-3.122c0-1.724-1.398-3.122-3.122-3.122z"/><path d="m437.252 431.536c-1.724 0-3.122 1.398-3.122 3.123s1.398 3.122 3.122 3.122 3.122-1.398 3.122-3.122c0-1.725-1.397-3.123-3.122-3.123z"/><path d="m406.682 421.851c-1.724 0-3.122 1.398-3.122 3.122 0 1.725 1.398 3.122 3.122 3.122s3.122-1.397 3.122-3.122c0-1.724-1.398-3.122-3.122-3.122z"/><path d="m417.125 431.536c-1.724 0-3.122 1.398-3.122 3.123s1.398 3.122 3.122 3.122 3.122-1.398 3.122-3.122c-.001-1.725-1.398-3.123-3.122-3.123z"/><path d="m386.554 421.851c-1.724 0-3.122 1.398-3.122 3.122 0 1.725 1.398 3.122 3.122 3.122s3.122-1.397 3.122-3.122c0-1.724-1.397-3.122-3.122-3.122z"/><path d="m396.997 431.536c-1.724 0-3.122 1.398-3.122 3.123s1.398 3.122 3.122 3.122 3.122-1.398 3.122-3.122c0-1.725-1.398-3.123-3.122-3.123z"/><path d="m366.427 421.851c-1.724 0-3.122 1.398-3.122 3.122 0 1.725 1.398 3.122 3.122 3.122s3.122-1.397 3.122-3.122c0-1.724-1.398-3.122-3.122-3.122z"/><path d="m469.336 258.026h-79.439c-22.33 0-40.496 18.167-40.496 40.496v109.408c0 22.33 18.166 40.496 40.496 40.496h79.439c22.33 0 40.497-18.167 40.497-40.496v-109.408c0-22.329-18.167-40.496-40.497-40.496zm32.446 149.904c0 17.89-14.555 32.445-32.446 32.445h-79.439c-4.531 0-8.846-.937-12.767-2.622 1.6-.135 2.861-1.461 2.861-3.096 0-1.724-1.398-3.123-3.122-3.123s-3.122 1.398-3.122 3.123c0 .62.186 1.195.498 1.681-7.449-4.121-13.108-11.086-15.516-19.419.688-.572 1.134-1.424 1.134-2.389 0-1.402-.93-2.575-2.203-2.969-.134-1.193-.208-2.403-.208-3.631v-5.761c7.391 9.882 19.184 16.289 32.445 16.289h79.439c13.262 0 25.054-6.408 32.446-16.289zm0-29.968c0 17.89-14.555 32.445-32.446 32.445h-79.439c-17.89 0-32.445-14.555-32.445-32.445v-79.439c0-17.89 14.555-32.445 32.445-32.445h79.439c17.891 0 32.446 14.555 32.446 32.445z"/><path d="m85.454 305.266c-.014-.037-.028-.073-.043-.109-.851-2.07-2.846-3.407-5.085-3.407-.001 0-.003 0-.005 0-2.24.002-4.235 1.343-5.119 3.507l-24.382 64.02c-.791 2.078.251 4.403 2.329 5.195.472.179.956.265 1.432.265 1.623 0 3.151-.988 3.763-2.594l5.085-13.352h33.619l5.034 13.34c.785 2.079 3.104 3.132 5.187 2.345 2.081-.785 3.13-3.107 2.345-5.187zm-18.958 45.473 13.82-36.289 13.695 36.289z"/><path d="m425.817 302.71h-17.847c-1.069 0-2.094.425-2.849 1.182s-1.178 1.782-1.176 2.852c0 0 .046 24.244.046 31.429 0 8.756.082 31.59.082 31.59.004 1.068.431 2.09 1.189 2.843.755.749 1.774 1.168 2.836 1.168h.015c.133 0 13.239-.051 18.298-.139 17.003-.297 28.879-14.852 28.879-35.393-.001-21.253-11.845-35.532-29.473-35.532zm.452 62.875c-3.241.057-9.863.098-14.159.12-.023-6.953-.068-21.074-.068-27.532 0-5.359-.025-20.203-.038-27.412h13.813c15.794 0 21.421 14.196 21.421 27.481 0 15.884-8.623 27.127-20.969 27.343z"/><path d="m263.493 334.977c-8.662-3.195-16.672-6.69-18.331-7.421-2.722-1.901-4.055-5.007-3.573-8.368.575-4.004 3.578-7.196 8.034-8.538 11.387-3.428 21.5 4.765 21.651 4.891 1.701 1.42 4.233 1.2 5.661-.5 1.431-1.702 1.211-4.241-.49-5.672-.543-.457-13.503-11.137-29.143-6.428-7.423 2.236-12.665 8.023-13.681 15.103-.94 6.545 1.892 12.837 7.391 16.422.178.116.365.218.558.304.371.166 9.193 4.093 19.137 7.761 8.06 2.973 12.115 7.856 11.125 13.397-.931 5.214-6.634 10.755-15.37 10.755-7.589 0-14.934-3.104-19.645-8.303-1.492-1.647-4.037-1.772-5.687-.279-1.647 1.493-1.772 4.038-.279 5.685 6.212 6.855 15.787 10.948 25.611 10.948 11.51 0 21.525-7.477 23.296-17.391 1.324-7.423-2.252-17.197-16.265-22.366z"/><path d="m301.882 105.396c-2.093-.732-4.395.369-5.13 2.467l-19.056 54.368-18.705-54.831c-.024-.07-.064-.13-.091-.198-.053-.131-.11-.259-.176-.384-.061-.114-.126-.222-.196-.329-.072-.109-.148-.214-.231-.316s-.169-.198-.261-.291c-.09-.092-.184-.179-.284-.262-.102-.085-.208-.164-.319-.239-.103-.07-.208-.136-.319-.197-.127-.07-.258-.129-.392-.186-.066-.027-.123-.066-.191-.09-.046-.016-.094-.02-.14-.035-.142-.044-.285-.077-.431-.106-.117-.023-.234-.047-.351-.06-.135-.015-.271-.016-.409-.017-.13-.001-.259-.002-.388.011-.123.011-.244.034-.367.057-.143.027-.284.057-.423.099-.047.014-.095.017-.142.033-.068.023-.126.062-.192.088-.135.054-.266.112-.394.18-.111.059-.216.123-.32.191-.112.074-.22.152-.325.237-.099.081-.193.165-.283.254-.094.093-.184.189-.269.292-.083.1-.159.202-.232.31-.072.106-.14.214-.202.328-.068.125-.127.252-.182.384-.028.067-.068.126-.092.194l-19.607 55.014-18.693-54.398c-.722-2.102-3.009-3.22-5.115-2.499-2.103.722-3.222 3.013-2.499 5.115l22.431 65.276c.556 1.618 2.074 2.708 3.785 2.717h.023c1.701 0 3.221-1.07 3.792-2.674l19.592-54.975 18.736 54.923c.554 1.624 2.077 2.719 3.793 2.726h.017c1.709 0 3.233-1.08 3.798-2.694l22.907-65.353c.736-2.097-.369-4.394-2.467-5.13z"/></g></g></svg>