<svg id="Capa_1" enable-background="new 0 0 462.001 462.001" height="512" viewBox="0 0 462.001 462.001" width="512" xmlns="http://www.w3.org/2000/svg"><g><path d="m106.459 177.052c-20.242-74.458 32.29-152.842 109.022-162.105 4.112-.497 7.043-4.232 6.547-8.345-.496-4.112-4.224-7.034-8.345-6.548-85.774 10.356-144.354 97.601-121.698 180.934 2.34 4.496 5.408 6.253 9.205 5.27 3.996-1.087 6.356-5.208 5.269-9.206z"/><path d="m248.149.053c-4.112-.49-7.844 2.447-8.334 6.561s2.447 7.845 6.561 8.334c64.727 7.708 113.537 62.763 113.537 128.063 0 40.135-18.206 77.289-49.947 101.934-16.46 12.767-26.543 32.773-26.543 53.656 0 12.548-11.973 18.467-22.5 18.4v-142.179h16.657c17.369 0 31.5-14.131 31.5-31.5s-14.131-31.5-31.5-31.5h-.157c-17.369 0-31.5 14.131-31.5 31.5v16.5h-30v-16.5c0-17.369-14.131-31.5-31.5-31.5h-.157c-17.369 0-31.5 14.131-31.5 31.5s14.131 31.5 31.5 31.5h16.657v142.179c-10.539.073-22.5-5.841-22.5-18.4 0-20.844-9.699-40.729-25.944-53.19-14.105-10.824-25.631-24.152-34.256-39.613-2.019-3.617-6.586-4.915-10.204-2.896s-4.914 6.587-2.896 10.204c9.627 17.256 22.487 32.128 38.225 44.206 12.57 9.643 20.075 25.078 20.075 41.289 0 8.834 4.529 19.023 11.245 24.989-6.685 5.374-11.245 14.93-11.245 23.412 0 8.948 3.943 16.989 10.177 22.49-6.073 5.361-10.177 14.539-10.177 22.51.9 14.072 7.694 23.546 20.382 28.422 2.926 23.405 22.933 41.578 47.118 41.578 24.184 0 44.19-18.172 47.117-41.576 11.315-3.817 20.383-16.466 20.383-28.424 0-8.948-3.943-16.988-10.177-22.49 6.078-5.366 10.177-14.531 10.177-22.51 0-9.462-4.408-17.909-11.273-23.412 6.907-6.124 11.273-15.054 11.273-24.989 0-16.106 8.163-32.05 20.739-41.806 35.431-27.51 55.751-68.982 55.751-113.784 0-72.893-54.497-134.352-126.764-142.958zm12.773 143.269c0-9.098 7.402-16.5 16.5-16.5h.157c9.098 0 16.5 7.402 16.5 16.5s-7.402 16.5-16.5 16.5h-16.657zm-76.657 16.5c-9.098 0-16.5-7.402-16.5-16.5s7.402-16.5 16.5-16.5h.157c9.098 0 16.5 7.402 16.5 16.5v16.5zm31.657 15h30v142.179h-30zm15 272.179c-15.339 0-28.221-10.685-31.617-25h63.234c-3.396 14.315-16.278 25-31.617 25zm37.5-115c8.271 0 15 6.729 15 15-.857 9.142-5.857 14.142-15 15h-10.83c-4.143 0-7.5 3.357-7.5 7.5s3.357 7.5 7.5 7.5h10.83c8.271 0 15 6.729 15 15 0 7.74-6.945 15-15 15h-75c-9.297-1.045-14.297-6.045-15-15 .858-9.142 5.858-14.142 15-15h31.48c4.142 0 7.5-3.357 7.5-7.5s-3.357-7.5-7.5-7.5h-31.48c-8.271 0-15-6.729-15-15 .858-9.142 5.858-14.142 15-15z"/></g></svg>