<?xml version="1.0" encoding="iso-8859-1"?>
<!-- Generator: Adobe Illustrator 18.1.1, SVG Export Plug-In . SVG Version: 6.00 Build 0)  -->
<svg version="1.1" id="Capa_1" xmlns="http://www.w3.org/2000/svg" xmlns:xlink="http://www.w3.org/1999/xlink" x="0px" y="0px"
	 viewBox="0 0 33.993 33.993" style="enable-background:new 0 0 33.993 33.993;" xml:space="preserve">
<g>
	<path d="M31.686,8.025H27.86v1.727h2.238V24.24H27.86v1.727h3.826c1.273,0,2.307-1.033,2.307-2.305V10.33
		C33.992,9.054,32.959,8.025,31.686,8.025z M31.65,13.906h0.672v6.18H31.65V13.906z M31.959,22.731c-0.328,0-0.594-0.264-0.594-0.59
		s0.266-0.59,0.594-0.59c0.324,0,0.59,0.264,0.59,0.59S32.283,22.731,31.959,22.731z"/>
	<path d="M7.609,24.24H6.012V9.752H7.61V8.025H2.305C1.033,8.025,0,9.054,0,10.33v13.332c0,1.272,1.033,2.305,2.305,2.305H7.61
		L7.609,24.24L7.609,24.24z M4.191,19.809H2.459v-5.627h1.732V19.809z"/>
	<path d="M24.398,1.154h-13.33c-1.275,0-2.304,1.034-2.304,2.309v4.562v1.727V24.24v1.727v4.566c0,1.271,1.029,2.306,2.305,2.306
		h13.33c1.275,0,2.307-1.034,2.307-2.306v-4.566V24.24V9.752V8.025V3.463C26.705,2.188,25.674,1.154,24.398,1.154z M22.879,2.598
		c0.326,0,0.59,0.265,0.59,0.59s-0.264,0.59-0.59,0.59s-0.59-0.265-0.59-0.59S22.553,2.598,22.879,2.598z M14.643,2.823h6.182v0.673
		h-6.182C14.643,3.496,14.643,2.823,14.643,2.823z M20.549,30.379H14.92v-1.732h5.629V30.379z M24.979,8.025v1.727V24.24v1.727
		v0.859H10.492v-0.859V24.24V9.752V8.025V5.049h14.486L24.979,8.025L24.979,8.025z"/>
	<polygon points="30.994,6.516 30.441,6.511 31.301,7.425 32.197,6.529 31.633,6.524 31.633,3.16 28.227,3.16 28.227,3.779 
		30.994,3.779 	"/>
	<polygon points="5.006,28.178 5.561,28.184 4.701,27.27 3.805,28.165 4.369,28.171 4.369,31.535 7.771,31.535 7.771,30.916 
		5.006,30.916 	"/>
	<g>
	</g>
	<g>
	</g>
	<g>
	</g>
	<g>
	</g>
	<g>
	</g>
	<g>
	</g>
	<g>
	</g>
	<g>
	</g>
	<g>
	</g>
	<g>
	</g>
	<g>
	</g>
	<g>
	</g>
	<g>
	</g>
	<g>
	</g>
	<g>
	</g>
</g>
<g>
</g>
<g>
</g>
<g>
</g>
<g>
</g>
<g>
</g>
<g>
</g>
<g>
</g>
<g>
</g>
<g>
</g>
<g>
</g>
<g>
</g>
<g>
</g>
<g>
</g>
<g>
</g>
<g>
</g>
</svg>
