<svg id="Layer_1" enable-background="new 0 0 512.063 512.063" height="512" viewBox="0 0 512.063 512.063" width="512" xmlns="http://www.w3.org/2000/svg"><g><g><path d="m344.33 468.51h-254.028v-30h254.028c8.271 0 15.001-6.73 15.001-15.002s-6.729-15.002-15.001-15.002h-117.66c-24.814 0-45.002-20.188-45.002-45.002s20.188-45.002 45.002-45.002h147.661c8.272 0 15.002-6.729 15.002-15.001s-6.729-15.002-15.002-15.002h-117.659c-24.814 0-45.002-20.188-45.002-45.002s20.188-45.002 45.002-45.002h178.663v30h-178.663c-8.272 0-15.002 6.73-15.002 15.002s6.729 15.002 15.002 15.002h117.659c24.814 0 45.002 20.188 45.002 45.002s-20.188 45.001-45.002 45.001h-147.661c-8.272 0-15.002 6.73-15.002 15.002s6.729 15.002 15.002 15.002h117.66c24.813 0 45.001 20.188 45.001 45.002s-20.187 45.002-45.001 45.002z"/></g><path d="m420.335 43.553v129.939h30v-45.094h61.728v-84.845z"/><path d="m90.302 192.053c-49.793 0-90.302 40.509-90.302 90.301 0 24.074 13.9 52.321 41.314 83.958 19.416 22.406 38.613 38.375 39.421 39.043l9.566 7.921 9.566-7.921c.808-.668 20.005-16.637 39.42-39.043 27.414-31.637 41.314-59.884 41.314-83.958.002-49.792-40.507-90.301-90.299-90.301zm0 118.119c-15.339 0-27.818-12.479-27.818-27.818s12.479-27.819 27.818-27.819 27.818 12.479 27.818 27.819c0 15.339-12.479 27.818-27.818 27.818z"/></g></svg>