<svg id="Capa_1" enable-background="new 0 0 510.513 510.513" height="512" viewBox="0 0 510.513 510.513" width="512" xmlns="http://www.w3.org/2000/svg"><g><path d="m508.934 374.044-21.002-114.24c-6.75-52.217-51.437-91.535-104.128-91.535h-257.1c-52.691 0-97.377 39.318-104.128 91.536l-21.002 114.239c-10.442 56.8 32.377 109.844 89.812 112.149 54.727 2.191 98.696-42.488 98.868-95.801.002-.19-6.175-.124 130.001-.124 0 53.13 43.973 98.129 98.868 95.925 57.175-2.295 100.305-55.077 89.811-112.149zm-56.307 70.411c-24.653 17.362-58.817 15.887-81.888-6.276-13.019-12.507-20.485-30.036-20.485-48.095 0-16.117-13.286-29.815-30-29.815h-130c-16.711 0-30 13.695-30 29.815 0 36.591-30.051 67.639-67.666 66.134-34.39-1.38-61.562-29.525-62.643-63.358-.271-8.47-.571-4.114 22.211-128.039.052-.282.096-.566.131-.852 4.682-37.456 36.674-65.701 74.416-65.701h257.1c37.742 0 69.733 28.245 74.416 65.701.081.66-1.404-7.495 21.208 115.5 4.79 26.013-6.885 50.961-26.8 64.986z"/><path d="m183.254 272.269h-25v-25c0-8.284-6.716-15-15-15s-15 6.716-15 15v25h-25c-8.284 0-15 6.716-15 15s6.716 15 15 15h25v25c0 8.284 6.716 15 15 15s15-6.716 15-15v-25h25c8.284 0 15-6.716 15-15s-6.716-15-15-15z"/><path d="m381.964 244.338c-1.856-8.857-10.636-13.932-19.07-11.42-8.654 2.82-12.207 11.399-9.99 18.7 2.746 8.583 11.353 12.238 18.7 10 7.762-2.477 11.748-9.866 10.36-17.28z"/><path d="m407.254 272.269c-8.284 0-15 6.716-15 15v1c0 8.284 6.716 15 15 15s15-6.716 15-15v-1c0-8.285-6.716-15-15-15z"/><path d="m327.254 272.269c-8.284 0-15 6.716-15 15v1c0 8.284 6.716 15 15 15s15-6.716 15-15v-1c0-8.285-6.716-15-15-15z"/><path d="m381.964 324.339c-1.856-8.857-10.636-13.932-19.07-11.42-8.617 2.808-12.197 11.285-9.99 18.71 2.865 8.762 11.492 12.186 18.7 9.99 7.733-2.468 11.753-9.841 10.36-17.28z"/><path d="m216.363 104.378c-5.858 5.858-5.858 15.355 0 21.213 5.857 5.857 15.355 5.857 21.213 0 9.77-9.77 25.584-9.772 35.355 0 5.858 5.858 15.355 5.858 21.213 0s5.858-15.355 0-21.213c-21.443-21.445-56.336-21.444-77.781 0z"/><path d="m192.321 80.336c34.781-34.781 91.08-34.787 125.865 0 5.857 5.858 15.355 5.858 21.213 0s5.858-15.355 0-21.213c-46.504-46.505-121.78-46.511-168.291 0-5.858 5.858-5.858 15.355 0 21.213s15.356 5.858 21.213 0z"/></g></svg>